<?xml version="1.0" encoding="UTF-8" standalone="no"?>
<svg width="263px" height="43px" viewBox="0 0 263 43" version="1.1" xmlns="http://www.w3.org/2000/svg" xmlns:xlink="http://www.w3.org/1999/xlink" xmlns:sketch="http://www.bohemiancoding.com/sketch/ns">
    <!-- Generator: Sketch 3.5.2 (25235) - http://www.bohemiancoding.com/sketch -->
    <title>UofTNews logo</title>
    <desc>Created with Sketch.</desc>
    <defs></defs>
    <g id="UofT-News" stroke="none" stroke-width="1" fill="none" fill-rule="evenodd" sketch:type="MSPage">
        <g id="Desktop---Home" sketch:type="MSArtboardGroup" transform="translate(-42.000000, -245.000000)" fill="#002F65">
            <g id="UofTNews-logo" sketch:type="MSLayerGroup" transform="translate(42.000000, 245.000000)">
                <path d="M261.325205,22.8912093 C260.970269,22.8370611 260.655381,22.788487 260.280814,22.7295611 C260.196792,22.3831722 260.031888,22.0296167 260.03974,21.6808389 C260.107272,19.0514685 258.331022,18.2742833 256.271295,17.8721537 C254.485622,17.5233759 252.687385,17.499487 251.017929,18.4255796 C248.834131,19.6367463 248.486263,22.4556352 250.449404,24.0068204 C251.420766,24.7728574 252.661471,25.2068389 253.812657,25.7140796 C255.603042,26.5048019 257.505718,27.0765426 259.21051,28.0185611 C261.867817,29.4901167 263.201183,31.8192833 262.938907,35.000487 C262.671135,38.2557463 261.062929,40.5777463 258.150413,41.7873204 C253.897465,43.5527093 249.822769,42.5517648 245.906696,40.5140426 C245.701744,40.4065426 245.447321,40.0720981 245.473234,39.8778019 C245.744147,37.8416722 246.066888,35.8127093 246.371567,33.812413 C247.282465,33.7367648 247.633474,34.0170611 247.637401,34.8483944 C247.642112,35.8405796 247.774035,36.8327648 247.886327,37.8209685 C247.916167,38.0861352 248.00333,38.4357093 248.188651,38.5758574 C250.482385,40.3038204 252.919035,41.5699315 255.909292,40.7123204 C257.789196,40.1716352 259.039324,38.9883389 259.44216,36.9975981 C259.850494,34.9750056 259.127272,33.339413 257.469596,32.2986537 C255.993314,31.3733574 254.347417,30.7227833 252.76434,29.9782463 C251.434901,29.3547463 250.028506,28.8777648 248.759532,28.1507463 C245.055478,26.029413 245.066471,19.2553204 249.255814,17.4604685 C251.018715,16.7047833 253.011696,16.1680796 254.905734,16.1505611 C256.936407,16.1306537 258.971792,16.8473204 261.007962,17.2271537 C261.841119,17.3824315 262.001311,17.8960426 261.886663,18.6612833 C261.677,20.0516167 261.513667,21.4483204 261.325205,22.8912093" id="Fill-17" sketch:type="MSShapeGroup"></path>
                <path d="M202.002303,17.0060222 C205.357704,17.0060222 208.713889,17.0052259 212.06929,17.0084111 C212.393601,17.0092074 212.717912,17.0386704 213.244819,17.341263 C212.91187,17.6327074 212.619755,18.0149296 212.23655,18.2020593 C210.023697,19.2842259 210.037046,19.2627259 210.748489,21.6563926 C212.132896,26.3266704 213.491389,31.0041148 214.864018,35.6783741 C214.907207,35.8256889 214.984162,35.9626519 215.170268,36.3926519 C217.610845,29.7061519 219.959546,23.2704852 222.299611,16.8610963 C222.427607,16.8292444 222.506133,16.7926148 222.585444,16.7926148 C223.771181,16.8053556 225.247463,16.3944667 226.059418,16.9606333 C226.84546,17.5092815 226.985236,19.0517074 227.344098,20.1784667 C229.011982,25.4109296 230.655524,30.6489667 232.310059,35.8838185 C232.357175,36.0351148 232.42078,36.1816333 232.611598,36.6888741 C234.722367,30.6330407 236.727127,24.8805963 238.727175,19.1416889 C237.999242,18.158263 236.305444,18.6416148 235.847639,17.0824667 L245.031213,17.0824667 C245.093248,17.1676704 245.155284,17.2544667 245.216534,17.3420593 C244.937768,17.577763 244.686486,17.9671519 244.375524,18.0244852 C242.188585,18.4353741 241.281614,19.9172815 240.537976,21.9223556 C238.113889,28.4583556 235.490348,34.9179111 232.938264,41.405337 C232.675204,42.0734296 232.514226,42.7096704 231.465909,42.6714481 C230.408954,42.6340222 230.327287,41.9770778 230.09171,41.2898741 C227.866293,34.8112074 225.63695,28.3349296 223.32437,21.6141889 C222.248569,24.2523185 221.253649,26.6818185 220.267367,29.1153 C218.577495,33.2831148 216.879771,37.4469481 215.22288,41.6275037 C214.947255,42.3226704 214.646502,42.652337 213.832191,42.6539296 C212.929146,42.6571148 212.871037,42.0352074 212.689643,41.4785963 C210.611854,35.0779667 208.476742,28.6964481 206.519098,22.2583926 C205.894034,20.2039481 205.002768,18.7140778 202.836245,18.2100222 C202.432623,18.1168556 202.102816,17.6948185 201.738457,17.4256704 C201.826405,17.2863185 201.915139,17.1461704 202.002303,17.0060222" id="Fill-11" sketch:type="MSShapeGroup"></path>
                <path d="M196.938027,26.4527241 C196.865784,24.0001315 196.623925,21.6653907 195.358091,19.5990019 C194.322338,17.9084648 192.809149,17.0850944 190.787899,17.4131685 C187.302146,17.9793352 184.05354,22.7204833 184.612643,26.4527241 L196.938027,26.4527241 Z M184.31503,28.3343722 C184.194101,31.1779463 184.345655,33.7746685 185.360992,36.2352241 C187.166296,40.6100759 191.980704,42.2480574 196.473155,39.9133167 C198.091569,39.0732241 199.525447,37.8684278 201.245944,36.6899093 C201.381793,36.888187 201.626008,37.2465204 201.871793,37.6072426 C197.249774,44.3367426 188.220111,43.7857056 183.82346,40.5312426 C181.197562,38.5882796 180.086425,35.764613 179.694582,32.6295944 C179.179454,28.5135389 179.404822,24.4938352 181.821056,20.9160759 C185.317018,15.7417426 192.97955,14.2924833 197.673812,17.9825204 C200.717466,20.376187 201.515287,23.8114093 201.606377,27.5038352 C201.628364,28.3925019 201.01979,28.3367611 200.426921,28.3359648 C195.548909,28.3327796 190.672466,28.3343722 185.795239,28.3343722 L184.31503,28.3343722 Z" id="Fill-15" sketch:type="MSShapeGroup"></path>
                <path d="M171.51378,33.7360481 L171.51378,6.61499259 C170.390079,5.52645556 168.613043,6.02095556 167.79088,4.36784444 L178.194742,4.36784444 C177.91362,4.78351111 177.749502,5.05664074 177.550832,5.3026963 C177.484085,5.38551111 177.330175,5.39904815 177.214742,5.44125185 C176.266152,5.78286296 174.944566,5.85771481 174.471841,6.53934444 C173.983412,7.24247407 174.299085,8.53486296 174.2983,9.56925185 C174.292803,19.9975481 174.295159,30.4250481 174.295159,40.8533444 L174.295159,42.3464 C172.700303,42.617937 171.613508,42.4921222 170.624085,40.9417333 C163.939197,30.4728259 157.123957,20.0899185 150.348764,9.68073333 C150.134389,9.35265926 149.904309,9.03493704 149.535239,8.50221481 C149.503043,9.09386296 149.468492,9.4076037 149.471633,9.72134444 C149.558796,19.2346963 149.666377,28.7464556 149.718204,38.2606037 C149.7237,39.1930667 150.019742,39.5665296 150.883524,39.7568444 C151.795207,39.9567148 152.684117,40.2887704 153.551825,40.6447148 C153.851008,40.7665481 154.055175,41.1296593 154.301745,41.3828815 C154.232643,41.4704741 154.16354,41.5572704 154.093652,41.644863 L141.904902,41.644863 C142.305383,41.1639 142.47971,40.7522148 142.766329,40.6447148 C144.062002,40.1605667 145.389085,39.7624185 146.764069,39.3149 L146.764069,6.75036296 C145.461329,5.83701111 143.572787,6.08625185 142.588861,4.69512222 C142.636761,4.5716963 142.683877,4.44747407 142.731777,4.32245556 C145.795848,4.32245556 148.860704,4.28980741 151.923204,4.36465926 C152.314261,4.37421481 152.800335,4.87827037 153.058684,5.27641852 C158.946537,14.3422519 164.808476,23.4256037 170.676697,32.5041778 C170.918556,32.8792333 171.177691,33.2431407 171.51378,33.7360481" id="Fill-6" sketch:type="MSShapeGroup"></path>
                <path d="M100.413433,4.09423704 C100.413433,4.09423704 100.378881,9.65557037 100.285436,11.1040333 C101.386365,11.5563296 101.526926,10.8038296 101.796269,10.2050148 C102.334955,9.00579259 102.597231,7.36223704 103.520692,6.7459037 C104.455933,6.1224037 106.052359,6.4894963 107.359811,6.47516296 C109.559314,6.45127407 111.760388,6.46879259 114.015644,6.46879259 L114.015644,39.1049963 C112.524442,39.6090519 111.082712,40.0645333 109.670821,40.5996444 C109.355933,40.7190889 109.144699,41.117237 108.885564,41.3879778 C108.962519,41.4747741 109.038689,41.5639593 109.115644,41.6515519 L123.89574,41.6515519 C123.89574,41.375237 123.966413,40.9635519 123.885532,40.9301074 C122.279683,40.2691815 120.656558,39.6512556 119.013016,39.0150148 L119.013016,6.54045926 C122.62441,6.54045926 126.17691,6.52771852 129.727054,6.5739037 C129.942215,6.57708889 130.236686,7.02938519 130.349763,7.3279963 C130.787151,8.48660741 131.176638,9.66353333 131.561413,10.8428481 C131.7805,11.5157185 132.124442,11.8254778 132.763641,11.4567926 L132.763641,4.31003333 C127.372856,4.31003333 122.136766,4.3387 116.900676,4.30286667 C111.619827,4.26703333 100.674923,4.09423704 100.674923,4.09423704" id="Fill-4" sketch:type="MSShapeGroup"></path>
                <path d="M91.3459856,5.89832593 C91.1724439,5.48823333 91.0373798,5.33852963 90.7790304,4.99293704 C90.2921715,4.34156667 89.6702484,3.76743704 89.0231971,3.27293704 C86.0258734,0.985177778 82.7026683,2.06495556 82.0595433,5.81152963 C81.4391907,9.42114074 81.3795112,13.1286963 81.0583413,16.968437 L88.3887099,16.968437 L88.3887099,18.7011778 L81.4014984,18.7011778 L81.4014984,39.2870296 C82.8628606,40.2075481 84.964992,39.9137148 86.2496715,41.3128074 C86.2041266,41.4203074 86.1585817,41.5278074 86.1130369,41.6353074 L72.7283413,41.6353074 C73.0510817,41.2092889 73.1947837,40.8867889 73.4397837,40.7267333 C73.7758734,40.5069556 74.1857772,40.4002519 74.5705529,40.2601037 C76.8988381,39.4112519 76.8996234,39.4128444 76.8996234,36.9833444 L76.8996234,20.2786407 L76.8996234,18.7696593 L72.3435657,18.7696593 L72.3435657,17.0369185 L76.8996234,17.0369185 C76.8996234,16.1896593 76.8705689,15.4586593 76.9043349,14.7300481 C77.0032772,12.619863 76.9467388,10.4818074 77.274976,8.40665926 C78.1897997,2.61838148 82.8165304,0.0463444444 88.2567869,0.657103704 C89.5791587,0.805214815 90.8771875,1.19062222 92.2639503,1.48286296 C92.069992,2.4001963 91.9121554,3.14393704 91.7103446,4.09391852" id="Fill-1" sketch:type="MSShapeGroup"></path>
                <path d="M65.0107628,29.2701 C64.9385192,26.4002481 64.6597532,23.6530259 63.2910513,21.1446926 C61.942766,18.6721926 59.9050256,17.4220074 57.0867404,17.4912852 C54.3571891,17.5581741 52.479641,18.9333778 51.1973173,21.2904148 C50.1034551,23.3002667 49.7390962,25.499637 49.6173814,27.7404148 C49.4391282,31.0442481 49.7021891,34.2979148 51.2059551,37.3103037 C52.4474455,39.797137 54.3956667,41.2248963 57.2469327,41.2463963 C60.0974135,41.2671 62.0275737,39.8823407 63.31775,37.389137 C64.6503301,34.8147111 64.8921891,32.0228963 65.0107628,29.2701 M69.9013397,29.1084519 C69.8628622,34.5591 68.0049455,39.0215444 62.9047051,41.4924519 C55.9308429,44.871137 46.0625256,41.6198593 44.7817724,31.4153222 C44.4653141,28.8942481 44.6270769,26.4416556 45.3369487,24.0360444 C46.4810673,20.1644519 49.0040962,17.6155074 52.8502821,16.5612111 C56.1153782,15.6653778 59.4134551,15.7155444 62.6392885,16.8223963 C66.8333429,18.2613037 69.6327821,22.3136556 69.8966282,27.2395444 C69.929609,27.8606556 69.9013397,28.4857481 69.9013397,29.1084519" id="Fill-13" sketch:type="MSShapeGroup"></path>
                <path d="M23.9894263,4.36951667 L38.1711571,4.36951667 C37.7274872,4.85446111 37.5296026,5.25579444 37.2272788,5.36727593 C35.9638013,5.83310926 34.6696987,6.21135 33.2295385,6.67081296 L33.2295385,8.0810537 C33.2287532,14.4800907 33.3143462,20.8807204 33.1855641,27.2773685 C33.1353077,29.7801278 32.8227756,32.3266833 32.2409006,34.7577759 C31.271109,38.8069426 28.5651154,41.3049241 24.5830801,42.30985 C20.9473429,43.2287759 17.275484,43.2247944 13.6468141,42.3281648 C8.64865705,41.0931093 6.03610897,37.6045352 5.24535577,32.621313 C4.94774359,30.7452389 4.82131731,28.8245722 4.80561218,26.923813 C4.75221474,20.5661833 4.76791987,14.2085537 4.80482692,7.85172037 C4.80953846,6.96623889 4.5873109,6.49244259 3.69997115,6.28540556 C2.70976282,6.05527593 1.73604487,5.72720185 0.783528846,5.36568333 C0.47649359,5.24862778 0.258977564,4.89109074 -0.000157051282,4.64344259 C0.0665897436,4.55346111 0.133336538,4.46427593 0.200083333,4.37429444 L14.6268141,4.37429444 C14.1588013,4.86322037 13.9632724,5.23429444 13.6719423,5.34338704 C12.6024231,5.74153519 11.5069904,6.07597963 10.4092019,6.38653519 C9.82183013,6.55296111 9.53678205,6.8141463 9.54149359,7.49577593 C9.59332051,15.0996093 9.53756731,22.7042389 9.68912179,30.304887 C9.744875,33.0871463 10.4264776,35.8311833 12.1548269,38.1189426 C15.8109808,42.9580352 23.6015096,42.3241833 26.6059006,36.9674981 C27.9494744,34.5730352 28.5431282,31.9460537 28.5682564,29.2274981 C28.6350032,22.0385352 28.5957404,14.8503685 28.6483526,7.66299815 C28.6546346,6.80857222 28.303625,6.50757222 27.6016058,6.31088704 C26.5799872,6.02581296 25.5607244,5.72242407 24.5665897,5.35294259 C24.2619103,5.24066481 24.0443942,4.88551667 23.7868301,4.64185 C23.8543622,4.55186852 23.9218942,4.46109074 23.9894263,4.36951667" id="Fill-8" sketch:type="MSShapeGroup"></path>
            </g>
        </g>
    </g>
</svg>